<svg width="80" height="80" viewBox="0 0 80 80" fill="none" xmlns="http://www.w3.org/2000/svg">
<path d="M80 40C80 62.0914 62.0914 80 40 80C17.9086 80 -1.64257e-07 62.0914 -1.05816e-07 40C-4.73754e-08 17.9086 17.9086 -4.25268e-08 40 -9.49863e-08C62.0914 -1.47446e-07 80 17.9086 80 40Z" fill="#2A2D36"/>
<path d="M55.3843 19.6924L55.3843 60.3079L45.1411 60.3079L40.6151 56.4398L36.089 60.3079L25.8458 60.3079L25.8458 19.6924L37.0419 19.6924L40.6151 23.5605L44.1883 19.6924L55.3843 19.6924Z" fill="#2A2D36"/>
<path fill-rule="evenodd" clip-rule="evenodd" d="M40.6151 56.4398L45.1411 60.3079L55.3843 60.3079L55.3843 19.6924L44.1883 19.6924L40.6151 23.5605L37.0419 19.6924L25.8458 19.6924L25.8458 60.3079L36.089 60.3079L40.6151 56.4398ZM35.1804 56.8464L40.6151 52.2017L46.0497 56.8464L51.9227 56.8464L51.9227 23.1539L45.2655 23.1539L40.6151 28.1882L35.9647 23.1539L29.3074 23.1539L29.3074 56.8464L35.1804 56.8464Z" fill="#B4FA05"/>
<path fill-rule="evenodd" clip-rule="evenodd" d="M45.5384 31.9997L50.4614 31.9997L50.4614 34.4612L45.5384 34.4612L45.5384 31.9997Z" fill="#B4FA05"/>
<path fill-rule="evenodd" clip-rule="evenodd" d="M38.1536 31.9997L43.0767 31.9997L43.0767 34.4612L38.1536 34.4612L38.1536 31.9997Z" fill="#B4FA05"/>
<path fill-rule="evenodd" clip-rule="evenodd" d="M30.7693 31.9997L35.6924 31.9997L35.6924 34.4612L30.7693 34.4612L30.7693 31.9997Z" fill="#B4FA05"/>
</svg>
