<svg width="80" height="80" viewBox="0 0 80 80" fill="none" xmlns="http://www.w3.org/2000/svg">
<circle cx="40" cy="40" r="40" fill="#2A2D36"/>
<path d="M20.9233 58.4622L28.6825 44.0384L51.9601 44.0384L56.6156 61.0809L20.9233 58.4622ZM40.0315 38.9162C34.4835 38.9162 29.9859 34.3625 29.9859 28.7452C29.9859 23.1279 34.4835 18.5742 40.0315 18.5742C45.5795 18.5742 50.0771 23.1279 50.0771 28.7452C50.0771 34.3625 45.5795 38.9162 40.0315 38.9162Z" fill="#2A2D36"/>
<path fill-rule="evenodd" clip-rule="evenodd" d="M20.9233 58.4622L56.6156 61.0809L51.9601 44.0384L28.6825 44.0384L20.9233 58.4622ZM26.6524 55.3174L51.8606 57.1669L49.2455 47.5939L30.8072 47.5939L26.6524 55.3174ZM33.5415 28.7452C33.5415 32.4406 36.4886 35.3607 40.0315 35.3607C43.5744 35.3607 46.5215 32.4406 46.5215 28.7452C46.5215 25.0499 43.5744 22.1298 40.0315 22.1298C36.4886 22.1298 33.5415 25.0499 33.5415 28.7452ZM29.9859 28.7452C29.9859 34.3625 34.4835 38.9162 40.0315 38.9162C45.5795 38.9162 50.0771 34.3625 50.0771 28.7452C50.0771 23.1279 45.5795 18.5742 40.0315 18.5742C34.4835 18.5742 29.9859 23.1279 29.9859 28.7452Z" fill="#B4FA05"/>
</svg>
